<?xml version="1.0" encoding="UTF-8" standalone="no"?>
<!DOCTYPE svg PUBLIC "-//W3C//DTD SVG 1.1//EN"
 "http://www.w3.org/Graphics/SVG/1.1/DTD/svg11.dtd">
<!-- Generated by graphviz version 2.49.0 (20210828.1703)
 -->
<!-- Title: main Pages: 1 -->
<svg width="207pt" height="66pt"
 viewBox="0.00 0.00 207.00 66.00" xmlns="http://www.w3.org/2000/svg" xmlns:xlink="http://www.w3.org/1999/xlink">
<g id="graph0" class="graph" transform="scale(1 1) rotate(0) translate(4 62)">
<title>main</title>
<polygon fill="white" stroke="transparent" points="-4,4 -4,-62 203,-62 203,4 -4,4"/>
<!-- Node1 -->
<g id="node1" class="node">
<title>Node1</title>
<g id="a_node1"><a xlink:title="Main function.">
<polygon fill="#bfbfbf" stroke="black" points="0,-19.5 0,-38.5 38,-38.5 38,-19.5 0,-19.5"/>
<text text-anchor="middle" x="19" y="-26.5" font-family="Helvetica,sans-Serif" font-size="10.00">main</text>
</a>
</g>
</g>
<!-- Node2 -->
<g id="node2" class="node">
<title>Node2</title>
<g id="a_node2"><a xlink:href="../../d9/d89/fibonacci_8cpp.html#aa8dca7b867074164d5f45b0f3851269d" target="_top" xlink:title=" ">
<polygon fill="white" stroke="black" points="74,-19.5 74,-38.5 107,-38.5 107,-19.5 74,-19.5"/>
<text text-anchor="middle" x="90.5" y="-26.5" font-family="Helvetica,sans-Serif" font-size="10.00">test</text>
</a>
</g>
</g>
<!-- Node1&#45;&gt;Node2 -->
<g id="edge1" class="edge">
<title>Node1&#45;&gt;Node2</title>
<path fill="none" stroke="midnightblue" d="M38.26,-29C46.07,-29 55.31,-29 63.79,-29"/>
<polygon fill="midnightblue" stroke="midnightblue" points="63.95,-32.5 73.95,-29 63.95,-25.5 63.95,-32.5"/>
</g>
<!-- Node3 -->
<g id="node3" class="node">
<title>Node3</title>
<g id="a_node3"><a target="_blank" xlink:href="http://en.cppreference.com/w/cpp/io/manip/endl.html#" xlink:title=" ">
<polygon fill="white" stroke="black" points="144,-38.5 144,-57.5 198,-57.5 198,-38.5 144,-38.5"/>
<text text-anchor="middle" x="171" y="-45.5" font-family="Helvetica,sans-Serif" font-size="10.00">std::endl</text>
</a>
</g>
</g>
<!-- Node2&#45;&gt;Node3 -->
<g id="edge2" class="edge">
<title>Node2&#45;&gt;Node3</title>
<path fill="none" stroke="midnightblue" d="M107.01,-32.75C114.69,-34.61 124.31,-36.94 133.7,-39.21"/>
<polygon fill="midnightblue" stroke="midnightblue" points="133.16,-42.68 143.7,-41.63 134.81,-35.88 133.16,-42.68"/>
</g>
<!-- Node4 -->
<g id="node4" class="node">
<title>Node4</title>
<g id="a_node4"><a xlink:href="../../d9/d89/fibonacci_8cpp.html#aaf94f3212385cff0a5f19ff6b0cce8e7" target="_top" xlink:title=" ">
<polygon fill="white" stroke="black" points="143,-0.5 143,-19.5 199,-19.5 199,-0.5 143,-0.5"/>
<text text-anchor="middle" x="171" y="-7.5" font-family="Helvetica,sans-Serif" font-size="10.00">fibonacci</text>
</a>
</g>
</g>
<!-- Node2&#45;&gt;Node4 -->
<g id="edge3" class="edge">
<title>Node2&#45;&gt;Node4</title>
<path fill="none" stroke="midnightblue" d="M107.01,-25.25C114.49,-23.44 123.82,-21.18 132.98,-18.96"/>
<polygon fill="midnightblue" stroke="midnightblue" points="133.87,-22.35 142.76,-16.59 132.22,-15.54 133.87,-22.35"/>
</g>
</g>
</svg>
