<?xml version="1.0" encoding="UTF-8" standalone="no"?>
<!DOCTYPE svg PUBLIC "-//W3C//DTD SVG 1.1//EN"
 "http://www.w3.org/Graphics/SVG/1.1/DTD/svg11.dtd">
<!-- Generated by graphviz version 2.49.0 (20210828.1703)
 -->
<!-- Title: main Pages: 1 -->
<svg width="226pt" height="218pt"
 viewBox="0.00 0.00 226.00 218.00" xmlns="http://www.w3.org/2000/svg" xmlns:xlink="http://www.w3.org/1999/xlink">
<g id="graph0" class="graph" transform="scale(1 1) rotate(0) translate(4 214)">
<title>main</title>
<polygon fill="white" stroke="transparent" points="-4,4 -4,-214 222,-214 222,4 -4,4"/>
<!-- Node1 -->
<g id="node1" class="node">
<title>Node1</title>
<g id="a_node1"><a xlink:title=" ">
<polygon fill="#bfbfbf" stroke="black" points="0,-95.5 0,-114.5 38,-114.5 38,-95.5 0,-95.5"/>
<text text-anchor="middle" x="19" y="-102.5" font-family="Helvetica,sans-Serif" font-size="10.00">main</text>
</a>
</g>
</g>
<!-- Node2 -->
<g id="node2" class="node">
<title>Node2</title>
<g id="a_node2"><a xlink:href="../../d6/db0/binomial__dist_8cpp.html#a4416a7bc7fa87201883c54cdc4c82813" target="_top" xlink:title=" ">
<polygon fill="white" stroke="black" points="96,-190.5 96,-209.5 196,-209.5 196,-190.5 96,-190.5"/>
<text text-anchor="middle" x="146" y="-197.5" font-family="Helvetica,sans-Serif" font-size="10.00">binomial_expected</text>
</a>
</g>
</g>
<!-- Node1&#45;&gt;Node2 -->
<g id="edge1" class="edge">
<title>Node1&#45;&gt;Node2</title>
<path fill="none" stroke="midnightblue" d="M24.12,-114.56C31.6,-130.79 49.01,-163.64 74,-181 77.76,-183.61 81.85,-185.86 86.12,-187.8"/>
<polygon fill="midnightblue" stroke="midnightblue" points="85.08,-191.16 95.67,-191.58 87.66,-184.65 85.08,-191.16"/>
</g>
<!-- Node3 -->
<g id="node3" class="node">
<title>Node3</title>
<g id="a_node3"><a xlink:href="../../d6/db0/binomial__dist_8cpp.html#a76ed6ce71415fb400b65f0656cef3d25" target="_top" xlink:title=" ">
<polygon fill="white" stroke="black" points="77.5,-152.5 77.5,-171.5 214.5,-171.5 214.5,-152.5 77.5,-152.5"/>
<text text-anchor="middle" x="146" y="-159.5" font-family="Helvetica,sans-Serif" font-size="10.00">binomial_range_successes</text>
</a>
</g>
</g>
<!-- Node1&#45;&gt;Node3 -->
<g id="edge2" class="edge">
<title>Node1&#45;&gt;Node3</title>
<path fill="none" stroke="midnightblue" d="M31.27,-114.73C41.71,-123.29 58.01,-135.52 74,-143 79.06,-145.36 84.46,-147.48 89.94,-149.35"/>
<polygon fill="midnightblue" stroke="midnightblue" points="89.25,-152.8 99.84,-152.48 91.35,-146.13 89.25,-152.8"/>
</g>
<!-- Node4 -->
<g id="node4" class="node">
<title>Node4</title>
<g id="a_node4"><a xlink:href="../../d6/db0/binomial__dist_8cpp.html#af09e51f513cee647d41192ab0a872cdc" target="_top" xlink:title=" ">
<polygon fill="white" stroke="black" points="74,-114.5 74,-133.5 218,-133.5 218,-114.5 74,-114.5"/>
<text text-anchor="middle" x="146" y="-121.5" font-family="Helvetica,sans-Serif" font-size="10.00">binomial_standard_deviation</text>
</a>
</g>
</g>
<!-- Node1&#45;&gt;Node4 -->
<g id="edge3" class="edge">
<title>Node1&#45;&gt;Node4</title>
<path fill="none" stroke="midnightblue" d="M38.18,-107.76C47.53,-109.18 59.6,-111.02 72.26,-112.94"/>
<polygon fill="midnightblue" stroke="midnightblue" points="72.07,-116.46 82.48,-114.5 73.12,-109.53 72.07,-116.46"/>
</g>
<!-- Node5 -->
<g id="node5" class="node">
<title>Node5</title>
<g id="a_node5"><a xlink:href="../../d6/db0/binomial__dist_8cpp.html#acd4dd4558031e4c5d045c801f73d8861" target="_top" xlink:title=" ">
<polygon fill="white" stroke="black" points="97.5,-76.5 97.5,-95.5 194.5,-95.5 194.5,-76.5 97.5,-76.5"/>
<text text-anchor="middle" x="146" y="-83.5" font-family="Helvetica,sans-Serif" font-size="10.00">binomial_variance</text>
</a>
</g>
</g>
<!-- Node1&#45;&gt;Node5 -->
<g id="edge4" class="edge">
<title>Node1&#45;&gt;Node5</title>
<path fill="none" stroke="midnightblue" d="M38.18,-102.24C51.14,-100.27 69.34,-97.5 87.05,-94.81"/>
<polygon fill="midnightblue" stroke="midnightblue" points="88.02,-98.2 97.38,-93.24 86.97,-91.28 88.02,-98.2"/>
</g>
<!-- Node6 -->
<g id="node6" class="node">
<title>Node6</title>
<g id="a_node6"><a xlink:href="../../d6/db0/binomial__dist_8cpp.html#a19ae0a6a2bd200fd1eb0e31b2bf4cc76" target="_top" xlink:title=" ">
<polygon fill="white" stroke="black" points="87.5,-38.5 87.5,-57.5 204.5,-57.5 204.5,-38.5 87.5,-38.5"/>
<text text-anchor="middle" x="146" y="-45.5" font-family="Helvetica,sans-Serif" font-size="10.00">binomial_x_successes</text>
</a>
</g>
</g>
<!-- Node1&#45;&gt;Node6 -->
<g id="edge5" class="edge">
<title>Node1&#45;&gt;Node6</title>
<path fill="none" stroke="midnightblue" d="M31.27,-95.27C41.71,-86.71 58.01,-74.48 74,-67 79.06,-64.64 84.46,-62.52 89.94,-60.65"/>
<polygon fill="midnightblue" stroke="midnightblue" points="91.35,-63.87 99.84,-57.52 89.25,-57.2 91.35,-63.87"/>
</g>
<!-- Node7 -->
<g id="node7" class="node">
<title>Node7</title>
<g id="a_node7"><a target="_blank" xlink:href="http://en.cppreference.com/w/cpp/io/manip/endl.html#" xlink:title=" ">
<polygon fill="white" stroke="black" points="119,-0.5 119,-19.5 173,-19.5 173,-0.5 119,-0.5"/>
<text text-anchor="middle" x="146" y="-7.5" font-family="Helvetica,sans-Serif" font-size="10.00">std::endl</text>
</a>
</g>
</g>
<!-- Node1&#45;&gt;Node7 -->
<g id="edge6" class="edge">
<title>Node1&#45;&gt;Node7</title>
<path fill="none" stroke="midnightblue" d="M24.12,-95.44C31.6,-79.21 49.01,-46.36 74,-29 84.21,-21.9 96.94,-17.46 108.78,-14.67"/>
<polygon fill="midnightblue" stroke="midnightblue" points="109.78,-18.04 118.88,-12.63 108.39,-11.18 109.78,-18.04"/>
</g>
</g>
</svg>
