<?xml version="1.0" encoding="UTF-8" standalone="no"?>
<!DOCTYPE svg PUBLIC "-//W3C//DTD SVG 1.1//EN"
 "http://www.w3.org/Graphics/SVG/1.1/DTD/svg11.dtd">
<!-- Generated by graphviz version 2.49.0 (20210828.1703)
 -->
<!-- Title: main Pages: 1 -->
<svg width="126pt" height="104pt"
 viewBox="0.00 0.00 126.00 104.00" xmlns="http://www.w3.org/2000/svg" xmlns:xlink="http://www.w3.org/1999/xlink">
<g id="graph0" class="graph" transform="scale(1 1) rotate(0) translate(4 100)">
<title>main</title>
<polygon fill="white" stroke="transparent" points="-4,4 -4,-100 122,-100 122,4 -4,4"/>
<!-- Node1 -->
<g id="node1" class="node">
<title>Node1</title>
<g id="a_node1"><a xlink:title=" ">
<polygon fill="#bfbfbf" stroke="black" points="0,-38.5 0,-57.5 38,-57.5 38,-38.5 0,-38.5"/>
<text text-anchor="middle" x="19" y="-45.5" font-family="Helvetica,sans-Serif" font-size="10.00">main</text>
</a>
</g>
</g>
<!-- Node2 -->
<g id="node2" class="node">
<title>Node2</title>
<g id="a_node2"><a xlink:href="../../dd/da8/pigeonhole__sort_8cpp.html#a34b8683a2b429de5cce57e6d733ec817" target="_top" xlink:title=" ">
<polygon fill="white" stroke="black" points="74,-76.5 74,-95.5 118,-95.5 118,-76.5 74,-76.5"/>
<text text-anchor="middle" x="96" y="-83.5" font-family="Helvetica,sans-Serif" font-size="10.00">test_1</text>
</a>
</g>
</g>
<!-- Node1&#45;&gt;Node2 -->
<g id="edge1" class="edge">
<title>Node1&#45;&gt;Node2</title>
<path fill="none" stroke="midnightblue" d="M38.16,-57.2C46.89,-61.63 57.56,-67.03 67.29,-71.96"/>
<polygon fill="midnightblue" stroke="midnightblue" points="65.73,-75.09 76.23,-76.49 68.89,-68.85 65.73,-75.09"/>
</g>
<!-- Node3 -->
<g id="node3" class="node">
<title>Node3</title>
<g id="a_node3"><a xlink:href="../../dd/da8/pigeonhole__sort_8cpp.html#a458410412185a5f09199deaff7157a8d" target="_top" xlink:title=" ">
<polygon fill="white" stroke="black" points="74,-38.5 74,-57.5 118,-57.5 118,-38.5 74,-38.5"/>
<text text-anchor="middle" x="96" y="-45.5" font-family="Helvetica,sans-Serif" font-size="10.00">test_2</text>
</a>
</g>
</g>
<!-- Node1&#45;&gt;Node3 -->
<g id="edge2" class="edge">
<title>Node1&#45;&gt;Node3</title>
<path fill="none" stroke="midnightblue" d="M38.16,-48C45.8,-48 54.92,-48 63.59,-48"/>
<polygon fill="midnightblue" stroke="midnightblue" points="63.82,-51.5 73.82,-48 63.82,-44.5 63.82,-51.5"/>
</g>
<!-- Node4 -->
<g id="node4" class="node">
<title>Node4</title>
<g id="a_node4"><a xlink:href="../../dd/da8/pigeonhole__sort_8cpp.html#af31ec5409537703d9c8a47350386b32a" target="_top" xlink:title=" ">
<polygon fill="white" stroke="black" points="74,-0.5 74,-19.5 118,-19.5 118,-0.5 74,-0.5"/>
<text text-anchor="middle" x="96" y="-7.5" font-family="Helvetica,sans-Serif" font-size="10.00">test_3</text>
</a>
</g>
</g>
<!-- Node1&#45;&gt;Node4 -->
<g id="edge3" class="edge">
<title>Node1&#45;&gt;Node4</title>
<path fill="none" stroke="midnightblue" d="M38.16,-38.8C46.89,-34.37 57.56,-28.97 67.29,-24.04"/>
<polygon fill="midnightblue" stroke="midnightblue" points="68.89,-27.15 76.23,-19.51 65.73,-20.91 68.89,-27.15"/>
</g>
</g>
</svg>
