<?xml version="1.0" encoding="UTF-8" standalone="no"?>
<!DOCTYPE svg PUBLIC "-//W3C//DTD SVG 1.1//EN"
 "http://www.w3.org/Graphics/SVG/1.1/DTD/svg11.dtd">
<!-- Generated by graphviz version 2.49.0 (20210828.1703)
 -->
<!-- Title: main Pages: 1 -->
<svg width="359pt" height="218pt"
 viewBox="0.00 0.00 359.00 218.00" xmlns="http://www.w3.org/2000/svg" xmlns:xlink="http://www.w3.org/1999/xlink">
<g id="graph0" class="graph" transform="scale(1 1) rotate(0) translate(4 214)">
<title>main</title>
<polygon fill="white" stroke="transparent" points="-4,4 -4,-214 355,-214 355,4 -4,4"/>
<!-- Node1 -->
<g id="node1" class="node">
<title>Node1</title>
<g id="a_node1"><a xlink:title=" ">
<polygon fill="#bfbfbf" stroke="black" points="0,-95.5 0,-114.5 38,-114.5 38,-95.5 0,-95.5"/>
<text text-anchor="middle" x="19" y="-102.5" font-family="Helvetica,sans-Serif" font-size="10.00">main</text>
</a>
</g>
</g>
<!-- Node2 -->
<g id="node2" class="node">
<title>Node2</title>
<g id="a_node2"><a xlink:href="../../dd/d0d/insertion__sort_8cpp.html#a88ec9ad42717780d6caaff9d3d6977f9" target="_top" xlink:title=" ">
<polygon fill="white" stroke="black" points="74,-95.5 74,-114.5 112,-114.5 112,-95.5 74,-95.5"/>
<text text-anchor="middle" x="93" y="-102.5" font-family="Helvetica,sans-Serif" font-size="10.00">tests</text>
</a>
</g>
</g>
<!-- Node1&#45;&gt;Node2 -->
<g id="edge1" class="edge">
<title>Node1&#45;&gt;Node2</title>
<path fill="none" stroke="midnightblue" d="M38.17,-105C45.87,-105 55.03,-105 63.58,-105"/>
<polygon fill="midnightblue" stroke="midnightblue" points="63.59,-108.5 73.59,-105 63.59,-101.5 63.59,-108.5"/>
</g>
<!-- Node3 -->
<g id="node3" class="node">
<title>Node3</title>
<g id="a_node3"><a target="_blank" xlink:href="http://en.cppreference.com/w/cpp/iterator/begin.html#" xlink:title=" ">
<polygon fill="white" stroke="black" points="174,-190.5 174,-209.5 234,-209.5 234,-190.5 174,-190.5"/>
<text text-anchor="middle" x="204" y="-197.5" font-family="Helvetica,sans-Serif" font-size="10.00">std::begin</text>
</a>
</g>
</g>
<!-- Node2&#45;&gt;Node3 -->
<g id="edge2" class="edge">
<title>Node2&#45;&gt;Node3</title>
<path fill="none" stroke="midnightblue" d="M98.37,-114.63C106.13,-130.67 123.77,-162.86 148,-181 152.87,-184.65 158.49,-187.63 164.24,-190.06"/>
<polygon fill="midnightblue" stroke="midnightblue" points="163.34,-193.46 173.93,-193.64 165.77,-186.89 163.34,-193.46"/>
</g>
<!-- Node4 -->
<g id="node4" class="node">
<title>Node4</title>
<g id="a_node4"><a xlink:href="../../dd/d0d/insertion__sort_8cpp.html#a59914553f24088342c139645a02a8a49" target="_top" xlink:title="Create a random array objecthelper function to create a random array.">
<polygon fill="white" stroke="black" points="148,-152.5 148,-171.5 260,-171.5 260,-152.5 148,-152.5"/>
<text text-anchor="middle" x="204" y="-159.5" font-family="Helvetica,sans-Serif" font-size="10.00">create_random_array</text>
</a>
</g>
</g>
<!-- Node2&#45;&gt;Node4 -->
<g id="edge3" class="edge">
<title>Node2&#45;&gt;Node4</title>
<path fill="none" stroke="midnightblue" d="M105.81,-114.79C116.36,-123.16 132.49,-135.06 148,-143 152.06,-145.07 156.39,-147.01 160.78,-148.79"/>
<polygon fill="midnightblue" stroke="midnightblue" points="159.79,-152.15 170.38,-152.42 162.27,-145.61 159.79,-152.15"/>
</g>
<!-- Node6 -->
<g id="node6" class="node">
<title>Node6</title>
<g id="a_node6"><a target="_blank" xlink:href="http://en.cppreference.com/w/cpp/iterator/end.html#" xlink:title=" ">
<polygon fill="white" stroke="black" points="178,-114.5 178,-133.5 230,-133.5 230,-114.5 178,-114.5"/>
<text text-anchor="middle" x="204" y="-121.5" font-family="Helvetica,sans-Serif" font-size="10.00">std::end</text>
</a>
</g>
</g>
<!-- Node2&#45;&gt;Node6 -->
<g id="edge5" class="edge">
<title>Node2&#45;&gt;Node6</title>
<path fill="none" stroke="midnightblue" d="M112.49,-108.22C127.59,-110.86 149.36,-114.65 167.77,-117.86"/>
<polygon fill="midnightblue" stroke="midnightblue" points="167.41,-121.35 177.86,-119.62 168.61,-114.45 167.41,-121.35"/>
</g>
<!-- Node7 -->
<g id="node7" class="node">
<title>Node7</title>
<g id="a_node7"><a target="_blank" xlink:href="http://en.cppreference.com/w/cpp/io/manip/endl.html#" xlink:title=" ">
<polygon fill="white" stroke="black" points="177,-76.5 177,-95.5 231,-95.5 231,-76.5 177,-76.5"/>
<text text-anchor="middle" x="204" y="-83.5" font-family="Helvetica,sans-Serif" font-size="10.00">std::endl</text>
</a>
</g>
</g>
<!-- Node2&#45;&gt;Node7 -->
<g id="edge6" class="edge">
<title>Node2&#45;&gt;Node7</title>
<path fill="none" stroke="midnightblue" d="M112.49,-101.78C127.28,-99.2 148.48,-95.5 166.65,-92.34"/>
<polygon fill="midnightblue" stroke="midnightblue" points="167.39,-95.76 176.64,-90.59 166.19,-88.86 167.39,-95.76"/>
</g>
<!-- Node8 -->
<g id="node8" class="node">
<title>Node8</title>
<g id="a_node8"><a xlink:href="../../d5/d91/namespacesorting.html#a78cb2f3b97b6db2c062b2a1df05c9ea9" target="_top" xlink:title="Insertion Sort Function.">
<polygon fill="white" stroke="black" points="150,-38.5 150,-57.5 258,-57.5 258,-38.5 150,-38.5"/>
<text text-anchor="middle" x="204" y="-45.5" font-family="Helvetica,sans-Serif" font-size="10.00">sorting::insertionSort</text>
</a>
</g>
</g>
<!-- Node2&#45;&gt;Node8 -->
<g id="edge7" class="edge">
<title>Node2&#45;&gt;Node8</title>
<path fill="none" stroke="midnightblue" d="M105.81,-95.21C116.36,-86.84 132.49,-74.94 148,-67 152.06,-64.93 156.39,-62.99 160.78,-61.21"/>
<polygon fill="midnightblue" stroke="midnightblue" points="162.27,-64.39 170.38,-57.58 159.79,-57.85 162.27,-64.39"/>
</g>
<!-- Node9 -->
<g id="node9" class="node">
<title>Node9</title>
<g id="a_node9"><a target="_blank" xlink:href="http://en.cppreference.com/w/cpp/algorithm/is_sorted.html#" xlink:title=" ">
<polygon fill="white" stroke="black" points="166,-0.5 166,-19.5 242,-19.5 242,-0.5 166,-0.5"/>
<text text-anchor="middle" x="204" y="-7.5" font-family="Helvetica,sans-Serif" font-size="10.00">std::is_sorted</text>
</a>
</g>
</g>
<!-- Node2&#45;&gt;Node9 -->
<g id="edge8" class="edge">
<title>Node2&#45;&gt;Node9</title>
<path fill="none" stroke="midnightblue" d="M98.37,-95.37C106.13,-79.33 123.77,-47.14 148,-29 150.67,-27 153.56,-25.2 156.58,-23.58"/>
<polygon fill="midnightblue" stroke="midnightblue" points="158.3,-26.64 165.9,-19.26 155.36,-20.29 158.3,-26.64"/>
</g>
<!-- Node5 -->
<g id="node5" class="node">
<title>Node5</title>
<g id="a_node5"><a target="_blank" xlink:href="http://en.cppreference.com/w/cpp/numeric/random/rand.html#" xlink:title=" ">
<polygon fill="white" stroke="black" points="296,-152.5 296,-171.5 351,-171.5 351,-152.5 296,-152.5"/>
<text text-anchor="middle" x="323.5" y="-159.5" font-family="Helvetica,sans-Serif" font-size="10.00">std::rand</text>
</a>
</g>
</g>
<!-- Node4&#45;&gt;Node5 -->
<g id="edge4" class="edge">
<title>Node4&#45;&gt;Node5</title>
<path fill="none" stroke="midnightblue" d="M260.31,-162C268.92,-162 277.63,-162 285.69,-162"/>
<polygon fill="midnightblue" stroke="midnightblue" points="285.86,-165.5 295.86,-162 285.86,-158.5 285.86,-165.5"/>
</g>
</g>
</svg>
