<?xml version="1.0" encoding="UTF-8" standalone="no"?>
<!DOCTYPE svg PUBLIC "-//W3C//DTD SVG 1.1//EN"
 "http://www.w3.org/Graphics/SVG/1.1/DTD/svg11.dtd">
<!-- Generated by graphviz version 2.49.0 (20210828.1703)
 -->
<!-- Title: data_structures::SkipList::insertElement Pages: 1 -->
<svg width="387pt" height="39pt"
 viewBox="0.00 0.00 387.00 39.00" xmlns="http://www.w3.org/2000/svg" xmlns:xlink="http://www.w3.org/1999/xlink">
<g id="graph0" class="graph" transform="scale(1 1) rotate(0) translate(4 35)">
<title>data_structures::SkipList::insertElement</title>
<polygon fill="white" stroke="transparent" points="-4,4 -4,-35 383,-35 383,4 -4,4"/>
<!-- Node1 -->
<g id="node1" class="node">
<title>Node1</title>
<g id="a_node1"><a xlink:title=" ">
<polygon fill="#bfbfbf" stroke="black" points="0,-0.5 0,-30.5 126,-30.5 126,-0.5 0,-0.5"/>
<text text-anchor="start" x="8" y="-18.5" font-family="Helvetica,sans-Serif" font-size="10.00">data_structures::SkipList</text>
<text text-anchor="middle" x="63" y="-7.5" font-family="Helvetica,sans-Serif" font-size="10.00">::insertElement</text>
</a>
</g>
</g>
<!-- Node2 -->
<g id="node2" class="node">
<title>Node2</title>
<g id="a_node2"><a xlink:href="../../d4/d90/classdata__structures_1_1_skip_list.html#aa3f3813e9896792fc86b296547689ba4" target="_top" xlink:title=" ">
<polygon fill="white" stroke="black" points="162,-0.5 162,-30.5 288,-30.5 288,-0.5 162,-0.5"/>
<text text-anchor="start" x="170" y="-18.5" font-family="Helvetica,sans-Serif" font-size="10.00">data_structures::SkipList</text>
<text text-anchor="middle" x="225" y="-7.5" font-family="Helvetica,sans-Serif" font-size="10.00">::randomLevel</text>
</a>
</g>
</g>
<!-- Node1&#45;&gt;Node2 -->
<g id="edge1" class="edge">
<title>Node1&#45;&gt;Node2</title>
<path fill="none" stroke="midnightblue" d="M126.32,-15.5C134.62,-15.5 143.18,-15.5 151.63,-15.5"/>
<polygon fill="midnightblue" stroke="midnightblue" points="151.85,-19 161.85,-15.5 151.85,-12 151.85,-19"/>
</g>
<!-- Node3 -->
<g id="node3" class="node">
<title>Node3</title>
<g id="a_node3"><a target="_blank" xlink:href="http://en.cppreference.com/w/cpp/numeric/random/rand.html#" xlink:title=" ">
<polygon fill="white" stroke="black" points="324,-6 324,-25 379,-25 379,-6 324,-6"/>
<text text-anchor="middle" x="351.5" y="-13" font-family="Helvetica,sans-Serif" font-size="10.00">std::rand</text>
</a>
</g>
</g>
<!-- Node2&#45;&gt;Node3 -->
<g id="edge2" class="edge">
<title>Node2&#45;&gt;Node3</title>
<path fill="none" stroke="midnightblue" d="M288.25,-15.5C296.96,-15.5 305.66,-15.5 313.69,-15.5"/>
<polygon fill="midnightblue" stroke="midnightblue" points="313.79,-19 323.79,-15.5 313.79,-12 313.79,-19"/>
</g>
</g>
</svg>
