<?xml version="1.0" encoding="UTF-8" standalone="no"?>
<!DOCTYPE svg PUBLIC "-//W3C//DTD SVG 1.1//EN"
 "http://www.w3.org/Graphics/SVG/1.1/DTD/svg11.dtd">
<!-- Generated by graphviz version 2.49.0 (20210828.1703)
 -->
<!-- Title: tests Pages: 1 -->
<svg width="249pt" height="104pt"
 viewBox="0.00 0.00 249.00 104.00" xmlns="http://www.w3.org/2000/svg" xmlns:xlink="http://www.w3.org/1999/xlink">
<g id="graph0" class="graph" transform="scale(1 1) rotate(0) translate(4 100)">
<title>tests</title>
<polygon fill="white" stroke="transparent" points="-4,4 -4,-100 245,-100 245,4 -4,4"/>
<!-- Node1 -->
<g id="node1" class="node">
<title>Node1</title>
<g id="a_node1"><a xlink:title=" ">
<polygon fill="#bfbfbf" stroke="black" points="0,-38.5 0,-57.5 38,-57.5 38,-38.5 0,-38.5"/>
<text text-anchor="middle" x="19" y="-45.5" font-family="Helvetica,sans-Serif" font-size="10.00">tests</text>
</a>
</g>
</g>
<!-- Node2 -->
<g id="node2" class="node">
<title>Node2</title>
<g id="a_node2"><a xlink:href="../../df/dce/namespacegraph.html#a9125ceb66bfbec3093bba64c2c1e99e2" target="_top" xlink:title="Function that add edge between two nodes or vertices of graph.">
<polygon fill="white" stroke="black" points="113.5,-76.5 113.5,-95.5 201.5,-95.5 201.5,-76.5 113.5,-76.5"/>
<text text-anchor="middle" x="157.5" y="-83.5" font-family="Helvetica,sans-Serif" font-size="10.00">graph::addEdge</text>
</a>
</g>
</g>
<!-- Node1&#45;&gt;Node2 -->
<g id="edge1" class="edge">
<title>Node1&#45;&gt;Node2</title>
<path fill="none" stroke="midnightblue" d="M38.33,-55.02C48.7,-58.85 61.97,-63.51 74,-67 83.53,-69.76 93.77,-72.39 103.68,-74.76"/>
<polygon fill="midnightblue" stroke="midnightblue" points="102.91,-78.18 113.45,-77.04 104.5,-71.36 102.91,-78.18"/>
</g>
<!-- Node3 -->
<g id="node3" class="node">
<title>Node3</title>
<g id="a_node3"><a target="_blank" xlink:href="http://en.cppreference.com/w/cpp/io/manip/endl.html#" xlink:title=" ">
<polygon fill="white" stroke="black" points="130.5,-38.5 130.5,-57.5 184.5,-57.5 184.5,-38.5 130.5,-38.5"/>
<text text-anchor="middle" x="157.5" y="-45.5" font-family="Helvetica,sans-Serif" font-size="10.00">std::endl</text>
</a>
</g>
</g>
<!-- Node1&#45;&gt;Node3 -->
<g id="edge2" class="edge">
<title>Node1&#45;&gt;Node3</title>
<path fill="none" stroke="midnightblue" d="M38.13,-48C59,-48 93.81,-48 120.29,-48"/>
<polygon fill="midnightblue" stroke="midnightblue" points="120.34,-51.5 130.34,-48 120.34,-44.5 120.34,-51.5"/>
</g>
<!-- Node4 -->
<g id="node4" class="node">
<title>Node4</title>
<g id="a_node4"><a xlink:href="../../df/dce/namespacegraph.html#a83ab16e96cec644109a58dfc9329bc2b" target="_top" xlink:title="Function that perfoms depth first search algorithm on graph and calculated the number of connected co...">
<polygon fill="white" stroke="black" points="74,-0.5 74,-19.5 241,-19.5 241,-0.5 74,-0.5"/>
<text text-anchor="middle" x="157.5" y="-7.5" font-family="Helvetica,sans-Serif" font-size="10.00">graph::getConnectedComponents</text>
</a>
</g>
</g>
<!-- Node1&#45;&gt;Node4 -->
<g id="edge3" class="edge">
<title>Node1&#45;&gt;Node4</title>
<path fill="none" stroke="midnightblue" d="M38.33,-40.98C48.7,-37.15 61.97,-32.49 74,-29 82.71,-26.47 92.01,-24.06 101.11,-21.86"/>
<polygon fill="midnightblue" stroke="midnightblue" points="101.95,-25.25 110.88,-19.55 100.34,-18.44 101.95,-25.25"/>
</g>
</g>
</svg>
