<?xml version="1.0" encoding="UTF-8" standalone="no"?>
<!DOCTYPE svg PUBLIC "-//W3C//DTD SVG 1.1//EN"
 "http://www.w3.org/Graphics/SVG/1.1/DTD/svg11.dtd">
<!-- Generated by graphviz version 2.49.0 (20210828.1703)
 -->
<!-- Title: main Pages: 1 -->
<svg width="323pt" height="122pt"
 viewBox="0.00 0.00 323.00 122.00" xmlns="http://www.w3.org/2000/svg" xmlns:xlink="http://www.w3.org/1999/xlink">
<g id="graph0" class="graph" transform="scale(1 1) rotate(0) translate(4 118)">
<title>main</title>
<polygon fill="white" stroke="transparent" points="-4,4 -4,-118 319,-118 319,4 -4,4"/>
<!-- Node1 -->
<g id="node1" class="node">
<title>Node1</title>
<g id="a_node1"><a xlink:title=" ">
<polygon fill="#bfbfbf" stroke="black" points="0,-47.5 0,-66.5 38,-66.5 38,-47.5 0,-47.5"/>
<text text-anchor="middle" x="19" y="-54.5" font-family="Helvetica,sans-Serif" font-size="10.00">main</text>
</a>
</g>
</g>
<!-- Node2 -->
<g id="node2" class="node">
<title>Node2</title>
<g id="a_node2"><a xlink:href="../../df/dce/namespacegraph.html#a9125ceb66bfbec3093bba64c2c1e99e2" target="_top" xlink:title="Function that add edge between two nodes or vertices of graph.">
<polygon fill="white" stroke="black" points="187.5,-94.5 187.5,-113.5 275.5,-113.5 275.5,-94.5 187.5,-94.5"/>
<text text-anchor="middle" x="231.5" y="-101.5" font-family="Helvetica,sans-Serif" font-size="10.00">graph::addEdge</text>
</a>
</g>
</g>
<!-- Node1&#45;&gt;Node2 -->
<g id="edge1" class="edge">
<title>Node1&#45;&gt;Node2</title>
<path fill="none" stroke="midnightblue" d="M30.16,-66.82C40.34,-75.96 56.9,-89.04 74,-95 107.02,-106.51 146.31,-108.73 177.27,-108.09"/>
<polygon fill="midnightblue" stroke="midnightblue" points="177.54,-111.58 187.42,-107.77 177.32,-104.59 177.54,-111.58"/>
</g>
<!-- Node3 -->
<g id="node3" class="node">
<title>Node3</title>
<g id="a_node3"><a target="_blank" xlink:href="http://en.cppreference.com/w/cpp/io/manip/endl.html#" xlink:title=" ">
<polygon fill="white" stroke="black" points="204.5,-47.5 204.5,-66.5 258.5,-66.5 258.5,-47.5 204.5,-47.5"/>
<text text-anchor="middle" x="231.5" y="-54.5" font-family="Helvetica,sans-Serif" font-size="10.00">std::endl</text>
</a>
</g>
</g>
<!-- Node1&#45;&gt;Node3 -->
<g id="edge2" class="edge">
<title>Node1&#45;&gt;Node3</title>
<path fill="none" stroke="midnightblue" d="M38.31,-57C73.02,-57 148.95,-57 194.29,-57"/>
<polygon fill="midnightblue" stroke="midnightblue" points="194.29,-60.5 204.29,-57 194.29,-53.5 194.29,-60.5"/>
</g>
<!-- Node4 -->
<g id="node4" class="node">
<title>Node4</title>
<g id="a_node4"><a xlink:href="../../df/dce/namespacegraph.html#a83ab16e96cec644109a58dfc9329bc2b" target="_top" xlink:title="Function that perfoms depth first search algorithm on graph and calculated the number of connected co...">
<polygon fill="white" stroke="black" points="148,-0.5 148,-19.5 315,-19.5 315,-0.5 148,-0.5"/>
<text text-anchor="middle" x="231.5" y="-7.5" font-family="Helvetica,sans-Serif" font-size="10.00">graph::getConnectedComponents</text>
</a>
</g>
</g>
<!-- Node1&#45;&gt;Node4 -->
<g id="edge3" class="edge">
<title>Node1&#45;&gt;Node4</title>
<path fill="none" stroke="midnightblue" d="M38.31,-52.91C69.09,-46.04 132.3,-31.93 177.83,-21.76"/>
<polygon fill="midnightblue" stroke="midnightblue" points="178.84,-25.12 187.84,-19.53 177.32,-18.29 178.84,-25.12"/>
</g>
<!-- Node5 -->
<g id="node5" class="node">
<title>Node5</title>
<g id="a_node5"><a xlink:href="../../df/ddd/connected__components_8cpp.html#a88ec9ad42717780d6caaff9d3d6977f9" target="_top" xlink:title=" ">
<polygon fill="white" stroke="black" points="74,-66.5 74,-85.5 112,-85.5 112,-66.5 74,-66.5"/>
<text text-anchor="middle" x="93" y="-73.5" font-family="Helvetica,sans-Serif" font-size="10.00">tests</text>
</a>
</g>
</g>
<!-- Node1&#45;&gt;Node5 -->
<g id="edge4" class="edge">
<title>Node1&#45;&gt;Node5</title>
<path fill="none" stroke="midnightblue" d="M38.17,-61.79C45.95,-63.85 55.23,-66.3 63.87,-68.58"/>
<polygon fill="midnightblue" stroke="midnightblue" points="63.02,-71.97 73.59,-71.14 64.81,-65.21 63.02,-71.97"/>
</g>
<!-- Node5&#45;&gt;Node2 -->
<g id="edge5" class="edge">
<title>Node5&#45;&gt;Node2</title>
<path fill="none" stroke="midnightblue" d="M112.13,-79.72C128.74,-83.13 154.19,-88.35 177.24,-93.07"/>
<polygon fill="midnightblue" stroke="midnightblue" points="176.77,-96.55 187.27,-95.13 178.18,-89.69 176.77,-96.55"/>
</g>
<!-- Node5&#45;&gt;Node3 -->
<g id="edge6" class="edge">
<title>Node5&#45;&gt;Node3</title>
<path fill="none" stroke="midnightblue" d="M112.13,-73.48C133,-70.57 167.81,-65.73 194.29,-62.04"/>
<polygon fill="midnightblue" stroke="midnightblue" points="194.92,-65.49 204.34,-60.64 193.96,-58.55 194.92,-65.49"/>
</g>
<!-- Node5&#45;&gt;Node4 -->
<g id="edge7" class="edge">
<title>Node5&#45;&gt;Node4</title>
<path fill="none" stroke="midnightblue" d="M105.8,-66.19C116.34,-57.81 132.47,-45.89 148,-38 159.7,-32.05 172.95,-26.92 185.36,-22.73"/>
<polygon fill="midnightblue" stroke="midnightblue" points="186.65,-25.99 195.08,-19.58 184.49,-19.33 186.65,-25.99"/>
</g>
</g>
</svg>
