<?xml version="1.0" encoding="UTF-8" standalone="no"?>
<!DOCTYPE svg PUBLIC "-//W3C//DTD SVG 1.1//EN"
 "http://www.w3.org/Graphics/SVG/1.1/DTD/svg11.dtd">
<!-- Generated by graphviz version 2.49.0 (20210828.1703)
 -->
<!-- Title: main Pages: 1 -->
<svg width="888pt" height="480pt"
 viewBox="0.00 0.00 888.00 480.00" xmlns="http://www.w3.org/2000/svg" xmlns:xlink="http://www.w3.org/1999/xlink">
<g id="graph0" class="graph" transform="scale(1 1) rotate(0) translate(4 476)">
<title>main</title>
<polygon fill="white" stroke="transparent" points="-4,4 -4,-476 884,-476 884,4 -4,4"/>
<!-- Node1 -->
<g id="node1" class="node">
<title>Node1</title>
<g id="a_node1"><a xlink:title="Main function.">
<polygon fill="#bfbfbf" stroke="black" points="0,-313 0,-332 38,-332 38,-313 0,-313"/>
<text text-anchor="middle" x="19" y="-320" font-family="Helvetica,sans-Serif" font-size="10.00">main</text>
</a>
</g>
</g>
<!-- Node2 -->
<g id="node2" class="node">
<title>Node2</title>
<g id="a_node2"><a target="_blank" xlink:href="http://en.cppreference.com/w/cpp/string/basic_string/stol.html#" xlink:title=" ">
<polygon fill="white" stroke="black" points="74,-351 74,-370 125,-370 125,-351 74,-351"/>
<text text-anchor="middle" x="99.5" y="-358" font-family="Helvetica,sans-Serif" font-size="10.00">std::stoi</text>
</a>
</g>
</g>
<!-- Node1&#45;&gt;Node2 -->
<g id="edge1" class="edge">
<title>Node1&#45;&gt;Node2</title>
<path fill="none" stroke="midnightblue" d="M38.21,-331.31C47.5,-335.81 59.03,-341.39 69.51,-346.47"/>
<polygon fill="midnightblue" stroke="midnightblue" points="68.22,-349.73 78.74,-350.94 71.27,-343.43 68.22,-349.73"/>
</g>
<!-- Node3 -->
<g id="node3" class="node">
<title>Node3</title>
<g id="a_node3"><a xlink:href="../../db/dbc/tree__234_8cpp.html#ae7880ce913f3058a35ff106d5be9e243" target="_top" xlink:title="simple test to insert a given array and delete some item, and print the tree">
<polygon fill="white" stroke="black" points="80.5,-313 80.5,-332 118.5,-332 118.5,-313 80.5,-313"/>
<text text-anchor="middle" x="99.5" y="-320" font-family="Helvetica,sans-Serif" font-size="10.00">test1</text>
</a>
</g>
</g>
<!-- Node1&#45;&gt;Node3 -->
<g id="edge2" class="edge">
<title>Node1&#45;&gt;Node3</title>
<path fill="none" stroke="midnightblue" d="M38.21,-322.5C47.72,-322.5 59.57,-322.5 70.24,-322.5"/>
<polygon fill="midnightblue" stroke="midnightblue" points="70.39,-326 80.39,-322.5 70.39,-319 70.39,-326"/>
</g>
<!-- Node26 -->
<g id="node26" class="node">
<title>Node26</title>
<g id="a_node26"><a xlink:href="../../db/dbc/tree__234_8cpp.html#af1ac73779b0fcfbbdce3976c0ca57342" target="_top" xlink:title="simple test to insert continuous number of range [0, n), and print the tree">
<polygon fill="white" stroke="black" points="80.5,-275 80.5,-294 118.5,-294 118.5,-275 80.5,-275"/>
<text text-anchor="middle" x="99.5" y="-282" font-family="Helvetica,sans-Serif" font-size="10.00">test2</text>
</a>
</g>
</g>
<!-- Node1&#45;&gt;Node26 -->
<g id="edge25" class="edge">
<title>Node1&#45;&gt;Node26</title>
<path fill="none" stroke="midnightblue" d="M38.21,-313.69C48.02,-308.94 60.31,-302.99 71.24,-297.7"/>
<polygon fill="midnightblue" stroke="midnightblue" points="72.92,-300.77 80.39,-293.27 69.87,-294.47 72.92,-300.77"/>
</g>
<!-- Node4 -->
<g id="node4" class="node">
<title>Node4</title>
<g id="a_node4"><a xlink:href="../../d3/d95/classdata__structures_1_1tree__234_1_1_tree234.html#a6749ebb40710c9752a2771eda03c6b3e" target="_top" xlink:title="Insert item to tree.">
<polygon fill="white" stroke="black" points="167,-391.5 167,-421.5 279,-421.5 279,-391.5 167,-391.5"/>
<text text-anchor="start" x="175" y="-409.5" font-family="Helvetica,sans-Serif" font-size="10.00">data_structures::tree</text>
<text text-anchor="middle" x="223" y="-398.5" font-family="Helvetica,sans-Serif" font-size="10.00">_234::Tree234::Insert</text>
</a>
</g>
</g>
<!-- Node3&#45;&gt;Node4 -->
<g id="edge3" class="edge">
<title>Node3&#45;&gt;Node4</title>
<path fill="none" stroke="midnightblue" d="M114.44,-332.14C133.17,-345.09 166.98,-368.46 191.7,-385.56"/>
<polygon fill="midnightblue" stroke="midnightblue" points="189.82,-388.5 200.03,-391.31 193.8,-382.75 189.82,-388.5"/>
</g>
<!-- Node6 -->
<g id="node6" class="node">
<title>Node6</title>
<g id="a_node6"><a xlink:href="../../d3/d95/classdata__structures_1_1tree__234_1_1_tree234.html#a2e9a9db7792cf5383f4c4cc418255165" target="_top" xlink:title="Print tree into a dot file.">
<polygon fill="white" stroke="black" points="169,-307.5 169,-337.5 277,-337.5 277,-307.5 169,-307.5"/>
<text text-anchor="start" x="177" y="-325.5" font-family="Helvetica,sans-Serif" font-size="10.00">data_structures::tree</text>
<text text-anchor="middle" x="223" y="-314.5" font-family="Helvetica,sans-Serif" font-size="10.00">_234::Tree234::Print</text>
</a>
</g>
</g>
<!-- Node3&#45;&gt;Node6 -->
<g id="edge5" class="edge">
<title>Node3&#45;&gt;Node6</title>
<path fill="none" stroke="midnightblue" d="M118.69,-322.5C129.55,-322.5 144.07,-322.5 158.78,-322.5"/>
<polygon fill="midnightblue" stroke="midnightblue" points="158.95,-326 168.95,-322.5 158.95,-319 158.95,-326"/>
</g>
<!-- Node11 -->
<g id="node11" class="node">
<title>Node11</title>
<g id="a_node11"><a xlink:href="../../d3/d95/classdata__structures_1_1tree__234_1_1_tree234.html#a5da1be3f5b5d967ebb36a201f3ebad11" target="_top" xlink:title="Remove item from tree.">
<polygon fill="white" stroke="black" points="161,-236.5 161,-266.5 285,-266.5 285,-236.5 161,-236.5"/>
<text text-anchor="start" x="169" y="-254.5" font-family="Helvetica,sans-Serif" font-size="10.00">data_structures::tree</text>
<text text-anchor="middle" x="223" y="-243.5" font-family="Helvetica,sans-Serif" font-size="10.00">_234::Tree234::Remove</text>
</a>
</g>
</g>
<!-- Node3&#45;&gt;Node11 -->
<g id="edge10" class="edge">
<title>Node3&#45;&gt;Node11</title>
<path fill="none" stroke="midnightblue" d="M116.89,-312.92C134.84,-302.43 164.17,-285.3 187.29,-271.79"/>
<polygon fill="midnightblue" stroke="midnightblue" points="189.26,-274.69 196.12,-266.62 185.72,-268.64 189.26,-274.69"/>
</g>
<!-- Node5 -->
<g id="node5" class="node">
<title>Node5</title>
<g id="a_node5"><a xlink:href="../../d3/d95/classdata__structures_1_1tree__234_1_1_tree234.html#a07811b3c564a3a443b106c9aa717629d" target="_top" xlink:title="A insert implementation of pre&#45;split.">
<polygon fill="white" stroke="black" points="331.5,-409.5 331.5,-439.5 478.5,-439.5 478.5,-409.5 331.5,-409.5"/>
<text text-anchor="start" x="339.5" y="-427.5" font-family="Helvetica,sans-Serif" font-size="10.00">data_structures::tree</text>
<text text-anchor="middle" x="405" y="-416.5" font-family="Helvetica,sans-Serif" font-size="10.00">_234::Tree234::InsertPreSplit</text>
</a>
</g>
</g>
<!-- Node4&#45;&gt;Node5 -->
<g id="edge4" class="edge">
<title>Node4&#45;&gt;Node5</title>
<path fill="none" stroke="midnightblue" d="M279.47,-412.05C292.69,-413.37 307.08,-414.81 321.23,-416.22"/>
<polygon fill="midnightblue" stroke="midnightblue" points="321.17,-419.73 331.46,-417.25 321.86,-412.77 321.17,-419.73"/>
</g>
<!-- Node7 -->
<g id="node7" class="node">
<title>Node7</title>
<g id="a_node7"><a target="_blank" xlink:href="http://en.cppreference.com/w/cpp/io/basic_ofstream/close.html#" xlink:title=" ">
<polygon fill="white" stroke="black" points="353.5,-371 353.5,-390 456.5,-390 456.5,-371 353.5,-371"/>
<text text-anchor="middle" x="405" y="-378" font-family="Helvetica,sans-Serif" font-size="10.00">std::ofstream::close</text>
</a>
</g>
</g>
<!-- Node6&#45;&gt;Node7 -->
<g id="edge6" class="edge">
<title>Node6&#45;&gt;Node7</title>
<path fill="none" stroke="midnightblue" d="M257.64,-337.55C276.09,-345.41 299.52,-354.77 321,-361.5 329.11,-364.04 337.77,-366.4 346.31,-368.53"/>
<polygon fill="midnightblue" stroke="midnightblue" points="345.71,-371.98 356.25,-370.92 347.35,-365.18 345.71,-371.98"/>
</g>
<!-- Node8 -->
<g id="node8" class="node">
<title>Node8</title>
<g id="a_node8"><a target="_blank" xlink:href="http://en.cppreference.com/w/cpp/io/manip/endl.html#" xlink:title=" ">
<polygon fill="white" stroke="black" points="378,-333 378,-352 432,-352 432,-333 378,-333"/>
<text text-anchor="middle" x="405" y="-340" font-family="Helvetica,sans-Serif" font-size="10.00">std::endl</text>
</a>
</g>
</g>
<!-- Node6&#45;&gt;Node8 -->
<g id="edge7" class="edge">
<title>Node6&#45;&gt;Node8</title>
<path fill="none" stroke="midnightblue" d="M277.03,-328.39C306.2,-331.63 341.63,-335.57 367.65,-338.46"/>
<polygon fill="midnightblue" stroke="midnightblue" points="367.5,-341.97 377.83,-339.59 368.27,-335.01 367.5,-341.97"/>
</g>
<!-- Node9 -->
<g id="node9" class="node">
<title>Node9</title>
<g id="a_node9"><a target="_blank" xlink:href="http://en.cppreference.com/w/cpp/io/basic_ofstream/open.html#" xlink:title=" ">
<polygon fill="white" stroke="black" points="354,-295 354,-314 456,-314 456,-295 354,-295"/>
<text text-anchor="middle" x="405" y="-302" font-family="Helvetica,sans-Serif" font-size="10.00">std::ofstream::open</text>
</a>
</g>
</g>
<!-- Node6&#45;&gt;Node9 -->
<g id="edge8" class="edge">
<title>Node6&#45;&gt;Node9</title>
<path fill="none" stroke="midnightblue" d="M277.03,-317.2C297.98,-315.1 322.16,-312.68 343.77,-310.52"/>
<polygon fill="midnightblue" stroke="midnightblue" points="344.21,-314 353.82,-309.52 343.52,-307.03 344.21,-314"/>
</g>
<!-- Node10 -->
<g id="node10" class="node">
<title>Node10</title>
<g id="a_node10"><a xlink:href="../../d3/d95/classdata__structures_1_1tree__234_1_1_tree234.html#af260f0760344771bf8fce4fc9b1739be" target="_top" xlink:title="Print the tree to a dot file. You can convert it to picture with graphviz.">
<polygon fill="white" stroke="black" points="339.5,-245.5 339.5,-275.5 470.5,-275.5 470.5,-245.5 339.5,-245.5"/>
<text text-anchor="start" x="347.5" y="-263.5" font-family="Helvetica,sans-Serif" font-size="10.00">data_structures::tree</text>
<text text-anchor="middle" x="405" y="-252.5" font-family="Helvetica,sans-Serif" font-size="10.00">_234::Tree234::PrintNode</text>
</a>
</g>
</g>
<!-- Node6&#45;&gt;Node10 -->
<g id="edge9" class="edge">
<title>Node6&#45;&gt;Node10</title>
<path fill="none" stroke="midnightblue" d="M261.54,-307.46C279.44,-300.47 301.21,-292.24 321,-285.5 327.86,-283.16 335.07,-280.82 342.26,-278.56"/>
<polygon fill="midnightblue" stroke="midnightblue" points="343.5,-281.84 352.01,-275.53 341.43,-275.15 343.5,-281.84"/>
</g>
<!-- Node12 -->
<g id="node12" class="node">
<title>Node12</title>
<g id="a_node12"><a xlink:href="../../d3/d95/classdata__structures_1_1tree__234_1_1_tree234.html#a61dd051a74e5f36c8dc03dae8dca6ef4" target="_top" xlink:title="Main function implement the pre&#45;merge remove operation.">
<polygon fill="white" stroke="black" points="321,-196.5 321,-226.5 489,-226.5 489,-196.5 321,-196.5"/>
<text text-anchor="start" x="329" y="-214.5" font-family="Helvetica,sans-Serif" font-size="10.00">data_structures::tree</text>
<text text-anchor="middle" x="405" y="-203.5" font-family="Helvetica,sans-Serif" font-size="10.00">_234::Tree234::RemovePreMerge</text>
</a>
</g>
</g>
<!-- Node11&#45;&gt;Node12 -->
<g id="edge11" class="edge">
<title>Node11&#45;&gt;Node12</title>
<path fill="none" stroke="midnightblue" d="M285.19,-237.9C298.48,-234.95 312.7,-231.79 326.52,-228.72"/>
<polygon fill="midnightblue" stroke="midnightblue" points="327.49,-232.09 336.49,-226.5 325.97,-225.25 327.49,-232.09"/>
</g>
<!-- Node13 -->
<g id="node13" class="node">
<title>Node13</title>
<g id="a_node13"><a xlink:href="../../d3/d95/classdata__structures_1_1tree__234_1_1_tree234.html#ac85ba5abfd6d34dcd908b2afe6464657" target="_top" xlink:title="Get the max item of the tree.">
<polygon fill="white" stroke="black" points="525,-392.5 525,-422.5 686,-422.5 686,-392.5 525,-392.5"/>
<text text-anchor="start" x="533" y="-410.5" font-family="Helvetica,sans-Serif" font-size="10.00">data_structures::tree</text>
<text text-anchor="middle" x="605.5" y="-399.5" font-family="Helvetica,sans-Serif" font-size="10.00">_234::Tree234::GetTreeMaxItem</text>
</a>
</g>
</g>
<!-- Node12&#45;&gt;Node13 -->
<g id="edge12" class="edge">
<title>Node12&#45;&gt;Node13</title>
<path fill="none" stroke="midnightblue" d="M477.81,-226.51C481.89,-229.06 485.68,-232.03 489,-235.5 535.83,-284.38 478.46,-334.34 525,-383.5 525.92,-384.47 526.88,-385.4 527.87,-386.3"/>
<polygon fill="midnightblue" stroke="midnightblue" points="525.97,-389.25 536.07,-392.46 530.17,-383.65 525.97,-389.25"/>
</g>
<!-- Node16 -->
<g id="node16" class="node">
<title>Node16</title>
<g id="a_node16"><a xlink:href="../../d3/d95/classdata__structures_1_1tree__234_1_1_tree234.html#a65a1235659356166a3e9b451c64fcc36" target="_top" xlink:title="Get the min item of the tree.">
<polygon fill="white" stroke="black" points="526,-343.5 526,-373.5 685,-373.5 685,-343.5 526,-343.5"/>
<text text-anchor="start" x="534" y="-361.5" font-family="Helvetica,sans-Serif" font-size="10.00">data_structures::tree</text>
<text text-anchor="middle" x="605.5" y="-350.5" font-family="Helvetica,sans-Serif" font-size="10.00">_234::Tree234::GetTreeMinItem</text>
</a>
</g>
</g>
<!-- Node12&#45;&gt;Node16 -->
<g id="edge15" class="edge">
<title>Node12&#45;&gt;Node16</title>
<path fill="none" stroke="midnightblue" d="M476.97,-226.72C481.31,-229.22 485.38,-232.13 489,-235.5 522.95,-267.13 491.42,-301.48 525,-333.5 526.66,-335.08 528.42,-336.56 530.26,-337.95"/>
<polygon fill="midnightblue" stroke="midnightblue" points="528.48,-340.97 538.78,-343.46 532.28,-335.09 528.48,-340.97"/>
</g>
<!-- Node19 -->
<g id="node19" class="node">
<title>Node19</title>
<g id="a_node19"><a xlink:href="../../dd/d40/classdata__structures_1_1tree__234_1_1_node.html#afd9f83e2d5d7f22f79c1348e98914631" target="_top" xlink:title="Check if node is a 2&#45;node.">
<polygon fill="white" stroke="black" points="550,-294.5 550,-324.5 661,-324.5 661,-294.5 550,-294.5"/>
<text text-anchor="start" x="558" y="-312.5" font-family="Helvetica,sans-Serif" font-size="10.00">data_structures::tree</text>
<text text-anchor="middle" x="605.5" y="-301.5" font-family="Helvetica,sans-Serif" font-size="10.00">_234::Node::Is2Node</text>
</a>
</g>
</g>
<!-- Node12&#45;&gt;Node19 -->
<g id="edge18" class="edge">
<title>Node12&#45;&gt;Node19</title>
<path fill="none" stroke="midnightblue" d="M473.05,-226.59C478.67,-229.12 484.08,-232.07 489,-235.5 511.16,-250.97 503.02,-268.78 525,-284.5 529.75,-287.9 534.98,-290.84 540.41,-293.4"/>
<polygon fill="midnightblue" stroke="midnightblue" points="539.14,-296.66 549.72,-297.34 541.87,-290.22 539.14,-296.66"/>
</g>
<!-- Node20 -->
<g id="node20" class="node">
<title>Node20</title>
<g id="a_node20"><a xlink:href="../../dd/d40/classdata__structures_1_1tree__234_1_1_node.html#a6c5f929afcbad5219646990edee22e18" target="_top" xlink:title="Check if node is a 3&#45;node or 4&#45;node, this is useful when we delete item from 2&#45;3&#45;4 tree.">
<polygon fill="white" stroke="black" points="547,-245.5 547,-275.5 664,-275.5 664,-245.5 547,-245.5"/>
<text text-anchor="start" x="555" y="-263.5" font-family="Helvetica,sans-Serif" font-size="10.00">data_structures::tree</text>
<text text-anchor="middle" x="605.5" y="-252.5" font-family="Helvetica,sans-Serif" font-size="10.00">_234::Node::Is34Node</text>
</a>
</g>
</g>
<!-- Node12&#45;&gt;Node20 -->
<g id="edge19" class="edge">
<title>Node12&#45;&gt;Node20</title>
<path fill="none" stroke="midnightblue" d="M466.91,-226.53C489.04,-232 514.19,-238.21 536.87,-243.81"/>
<polygon fill="midnightblue" stroke="midnightblue" points="536.22,-247.25 546.77,-246.25 537.9,-240.45 536.22,-247.25"/>
</g>
<!-- Node21 -->
<g id="node21" class="node">
<title>Node21</title>
<g id="a_node21"><a xlink:href="../../d3/d95/classdata__structures_1_1tree__234_1_1_tree234.html#ae58dca20f08eaf9313f6e7b0869c2d0e" target="_top" xlink:title="Do the actual left rotate operation.">
<polygon fill="white" stroke="black" points="539,-196.5 539,-226.5 672,-226.5 672,-196.5 539,-196.5"/>
<text text-anchor="start" x="547" y="-214.5" font-family="Helvetica,sans-Serif" font-size="10.00">data_structures::tree</text>
<text text-anchor="middle" x="605.5" y="-203.5" font-family="Helvetica,sans-Serif" font-size="10.00">_234::Tree234::LeftRotate</text>
</a>
</g>
</g>
<!-- Node12&#45;&gt;Node21 -->
<g id="edge20" class="edge">
<title>Node12&#45;&gt;Node21</title>
<path fill="none" stroke="midnightblue" d="M489.03,-211.5C502.11,-211.5 515.57,-211.5 528.48,-211.5"/>
<polygon fill="midnightblue" stroke="midnightblue" points="528.7,-215 538.7,-211.5 528.7,-208 528.7,-215"/>
</g>
<!-- Node22 -->
<g id="node22" class="node">
<title>Node22</title>
<g id="a_node22"><a xlink:href="../../d3/d95/classdata__structures_1_1tree__234_1_1_tree234.html#a36f4d5f603f7edb7db7c73fb53ba14e9" target="_top" xlink:title="Merge the item at index of the parent node, and its left and right child.">
<polygon fill="white" stroke="black" points="548,-147.5 548,-177.5 663,-177.5 663,-147.5 548,-147.5"/>
<text text-anchor="start" x="556" y="-165.5" font-family="Helvetica,sans-Serif" font-size="10.00">data_structures::tree</text>
<text text-anchor="middle" x="605.5" y="-154.5" font-family="Helvetica,sans-Serif" font-size="10.00">_234::Tree234::Merge</text>
</a>
</g>
</g>
<!-- Node12&#45;&gt;Node22 -->
<g id="edge21" class="edge">
<title>Node12&#45;&gt;Node22</title>
<path fill="none" stroke="midnightblue" d="M466.91,-196.47C489.34,-190.93 514.87,-184.63 537.79,-178.97"/>
<polygon fill="midnightblue" stroke="midnightblue" points="538.9,-182.3 547.77,-176.5 537.23,-175.5 538.9,-182.3"/>
</g>
<!-- Node23 -->
<g id="node23" class="node">
<title>Node23</title>
<g id="a_node23"><a xlink:href="../../d3/d95/classdata__structures_1_1tree__234_1_1_tree234.html#ae68f8e62be02657c1287def6b38d7cc9" target="_top" xlink:title="Do the actual right rotate operation.">
<polygon fill="white" stroke="black" points="535.5,-98.5 535.5,-128.5 675.5,-128.5 675.5,-98.5 535.5,-98.5"/>
<text text-anchor="start" x="543.5" y="-116.5" font-family="Helvetica,sans-Serif" font-size="10.00">data_structures::tree</text>
<text text-anchor="middle" x="605.5" y="-105.5" font-family="Helvetica,sans-Serif" font-size="10.00">_234::Tree234::RightRotate</text>
</a>
</g>
</g>
<!-- Node12&#45;&gt;Node23 -->
<g id="edge22" class="edge">
<title>Node12&#45;&gt;Node23</title>
<path fill="none" stroke="midnightblue" d="M426.56,-196.37C449.56,-180 488.43,-154.04 525,-137.5 529.29,-135.56 533.78,-133.72 538.35,-132"/>
<polygon fill="midnightblue" stroke="midnightblue" points="539.56,-135.28 547.79,-128.61 537.2,-128.69 539.56,-135.28"/>
</g>
<!-- Node24 -->
<g id="node24" class="node">
<title>Node24</title>
<g id="a_node24"><a xlink:href="../../d3/d95/classdata__structures_1_1tree__234_1_1_tree234.html#ac5361479dd996eb331759f33808657d9" target="_top" xlink:title="A handy function to try if we can do a left rotate to the target node.">
<polygon fill="white" stroke="black" points="532,-49.5 532,-79.5 679,-79.5 679,-49.5 532,-49.5"/>
<text text-anchor="start" x="540" y="-67.5" font-family="Helvetica,sans-Serif" font-size="10.00">data_structures::tree</text>
<text text-anchor="middle" x="605.5" y="-56.5" font-family="Helvetica,sans-Serif" font-size="10.00">_234::Tree234::TryLeftRotate</text>
</a>
</g>
</g>
<!-- Node12&#45;&gt;Node24 -->
<g id="edge23" class="edge">
<title>Node12&#45;&gt;Node24</title>
<path fill="none" stroke="midnightblue" d="M416.63,-196.23C435.49,-170.28 477.31,-117.58 525,-88.5 527.77,-86.81 530.67,-85.23 533.65,-83.76"/>
<polygon fill="midnightblue" stroke="midnightblue" points="535.11,-86.94 542.79,-79.65 532.24,-80.56 535.11,-86.94"/>
</g>
<!-- Node25 -->
<g id="node25" class="node">
<title>Node25</title>
<g id="a_node25"><a xlink:href="../../d3/d95/classdata__structures_1_1tree__234_1_1_tree234.html#aec0642d1d151521ca7c70ea85cdb15d3" target="_top" xlink:title="A handy function to try if we can do a right rotate to the target node.">
<polygon fill="white" stroke="black" points="528.5,-0.5 528.5,-30.5 682.5,-30.5 682.5,-0.5 528.5,-0.5"/>
<text text-anchor="start" x="536.5" y="-18.5" font-family="Helvetica,sans-Serif" font-size="10.00">data_structures::tree</text>
<text text-anchor="middle" x="605.5" y="-7.5" font-family="Helvetica,sans-Serif" font-size="10.00">_234::Tree234::TryRightRotate</text>
</a>
</g>
</g>
<!-- Node12&#45;&gt;Node25 -->
<g id="edge24" class="edge">
<title>Node12&#45;&gt;Node25</title>
<path fill="none" stroke="midnightblue" d="M412.27,-196.3C426.88,-162.78 466.44,-82.14 525,-39.5 526.89,-38.12 528.87,-36.82 530.9,-35.59"/>
<polygon fill="midnightblue" stroke="midnightblue" points="532.98,-38.45 540.17,-30.68 529.7,-32.27 532.98,-38.45"/>
</g>
<!-- Node14 -->
<g id="node14" class="node">
<title>Node14</title>
<g id="a_node14"><a xlink:href="../../dd/d40/classdata__structures_1_1tree__234_1_1_node.html#a2753b6053b8c86c5bd987a44fdfa0a57" target="_top" xlink:title="Get max item (rightmost) in the current node.">
<polygon fill="white" stroke="black" points="737,-441.5 737,-471.5 865,-471.5 865,-441.5 737,-441.5"/>
<text text-anchor="start" x="745" y="-459.5" font-family="Helvetica,sans-Serif" font-size="10.00">data_structures::tree</text>
<text text-anchor="middle" x="801" y="-448.5" font-family="Helvetica,sans-Serif" font-size="10.00">_234::Node::GetMaxItem</text>
</a>
</g>
</g>
<!-- Node13&#45;&gt;Node14 -->
<g id="edge13" class="edge">
<title>Node13&#45;&gt;Node14</title>
<path fill="none" stroke="midnightblue" d="M665.87,-422.53C686.4,-427.73 709.57,-433.6 730.81,-438.98"/>
<polygon fill="midnightblue" stroke="midnightblue" points="730.19,-442.43 740.74,-441.49 731.91,-435.65 730.19,-442.43"/>
</g>
<!-- Node15 -->
<g id="node15" class="node">
<title>Node15</title>
<g id="a_node15"><a xlink:href="../../dd/d40/classdata__structures_1_1tree__234_1_1_node.html#a731f9ae385840cf0a06d55e7f9924a94" target="_top" xlink:title="Get rightmose child of the current node.">
<polygon fill="white" stroke="black" points="722,-392.5 722,-422.5 880,-422.5 880,-392.5 722,-392.5"/>
<text text-anchor="start" x="730" y="-410.5" font-family="Helvetica,sans-Serif" font-size="10.00">data_structures::tree</text>
<text text-anchor="middle" x="801" y="-399.5" font-family="Helvetica,sans-Serif" font-size="10.00">_234::Node::GetRightmostChild</text>
</a>
</g>
</g>
<!-- Node13&#45;&gt;Node15 -->
<g id="edge14" class="edge">
<title>Node13&#45;&gt;Node15</title>
<path fill="none" stroke="midnightblue" d="M686.04,-407.5C694.42,-407.5 702.97,-407.5 711.43,-407.5"/>
<polygon fill="midnightblue" stroke="midnightblue" points="711.7,-411 721.7,-407.5 711.7,-404 711.7,-411"/>
</g>
<!-- Node17 -->
<g id="node17" class="node">
<title>Node17</title>
<g id="a_node17"><a xlink:href="../../dd/d40/classdata__structures_1_1tree__234_1_1_node.html#ac6f619a1605cb46196360889fff4529e" target="_top" xlink:title="Get leftmose child of the current node.">
<polygon fill="white" stroke="black" points="725.5,-343.5 725.5,-373.5 876.5,-373.5 876.5,-343.5 725.5,-343.5"/>
<text text-anchor="start" x="733.5" y="-361.5" font-family="Helvetica,sans-Serif" font-size="10.00">data_structures::tree</text>
<text text-anchor="middle" x="801" y="-350.5" font-family="Helvetica,sans-Serif" font-size="10.00">_234::Node::GetLeftmostChild</text>
</a>
</g>
</g>
<!-- Node16&#45;&gt;Node17 -->
<g id="edge16" class="edge">
<title>Node16&#45;&gt;Node17</title>
<path fill="none" stroke="midnightblue" d="M685.2,-358.5C695.07,-358.5 705.19,-358.5 715.14,-358.5"/>
<polygon fill="midnightblue" stroke="midnightblue" points="715.43,-362 725.43,-358.5 715.43,-355 715.43,-362"/>
</g>
<!-- Node18 -->
<g id="node18" class="node">
<title>Node18</title>
<g id="a_node18"><a xlink:href="../../dd/d40/classdata__structures_1_1tree__234_1_1_node.html#a5438d0a47850f520b2262b5a42f75b71" target="_top" xlink:title="get min item (leftmost) in the current node">
<polygon fill="white" stroke="black" points="738.5,-294.5 738.5,-324.5 863.5,-324.5 863.5,-294.5 738.5,-294.5"/>
<text text-anchor="start" x="746.5" y="-312.5" font-family="Helvetica,sans-Serif" font-size="10.00">data_structures::tree</text>
<text text-anchor="middle" x="801" y="-301.5" font-family="Helvetica,sans-Serif" font-size="10.00">_234::Node::GetMinItem</text>
</a>
</g>
</g>
<!-- Node16&#45;&gt;Node18 -->
<g id="edge17" class="edge">
<title>Node16&#45;&gt;Node18</title>
<path fill="none" stroke="midnightblue" d="M665.87,-343.47C686.4,-338.27 709.57,-332.4 730.81,-327.02"/>
<polygon fill="midnightblue" stroke="midnightblue" points="731.91,-330.35 740.74,-324.51 730.19,-323.57 731.91,-330.35"/>
</g>
</g>
</svg>
